<?xml version="1.0"?>
<svg viewBox="0 0 400 140" width="400" height="140" version="1.1" id="svg20" xmlns:inkscape="http://www.inkscape.org/namespaces/inkscape" xmlns:sodipodi="http://sodipodi.sourceforge.net/DTD/sodipodi-0.dtd" xmlns="http://www.w3.org/2000/svg" xmlns:svg="http://www.w3.org/2000/svg">
  <namedview id="namedview20" pagecolor="#ffffff" bordercolor="#000000" borderopacity="0.25"></namedview>
  <defs id="defs6">
    <linearGradient id="bg1" x1="0%" y1="0%" x2="100%" y2="100%">
      <stop offset="0%" style="stop-color:#1a3a5c" id="stop1"></stop>
      <stop offset="100%" style="stop-color:#0d2137" id="stop2"></stop>
    </linearGradient>
    <linearGradient id="gold1" x1="0%" y1="0%" x2="100%" y2="100%">
      <stop offset="0%" style="stop-color:#d4a843" id="stop3"></stop>
      <stop offset="100%" style="stop-color:#b8861e" id="stop4"></stop>
    </linearGradient>
    <linearGradient id="blue1" x1="0%" y1="0%" x2="100%" y2="100%">
      <stop offset="0%" style="stop-color:#3a7bd5" id="stop5"></stop>
      <stop offset="100%" style="stop-color:#1a3a5c" id="stop6"></stop>
    </linearGradient>
  </defs>
  
  <g transform="translate(70,70)" id="g18">
    
    <polygon points="0,-50 43,-25 43,25 0,50 -43,25 -43,-25" fill="none" stroke="url(#gold1)" stroke-width="2.5" id="polygon6"></polygon>
    
    <polygon points="0,-30 26,-15 26,15 0,30 -26,15 -26,-15" fill="none" stroke="url(#blue1)" stroke-width="2" id="polygon7"></polygon>
    
    <polygon points="0,-12 10,0 0,12 -10,0" fill="url(#gold1)" opacity="0.9" id="polygon8"></polygon>
    
    <circle cx="0" cy="-30" r="3" fill="#3a7bd5" id="circle8"></circle>
    <circle cx="26" cy="-15" r="3" fill="#3a7bd5" id="circle9"></circle>
    <circle cx="26" cy="15" r="3" fill="#3a7bd5" id="circle10"></circle>
    <circle cx="0" cy="30" r="3" fill="#3a7bd5" id="circle11"></circle>
    <circle cx="-26" cy="15" r="3" fill="#3a7bd5" id="circle12"></circle>
    <circle cx="-26" cy="-15" r="3" fill="#3a7bd5" id="circle13"></circle>
    
    <line x1="0" y1="-12" x2="0" y2="-30" stroke="#3a7bd5" stroke-width="1" opacity="0.6" id="line13"></line>
    <line x1="10" y1="0" x2="26" y2="-15" stroke="#3a7bd5" stroke-width="1" opacity="0.6" id="line14"></line>
    <line x1="10" y1="0" x2="26" y2="15" stroke="#3a7bd5" stroke-width="1" opacity="0.6" id="line15"></line>
    <line x1="0" y1="12" x2="0" y2="30" stroke="#3a7bd5" stroke-width="1" opacity="0.6" id="line16"></line>
    <line x1="-10" y1="0" x2="-26" y2="15" stroke="#3a7bd5" stroke-width="1" opacity="0.6" id="line17"></line>
    <line x1="-10" y1="0" x2="-26" y2="-15" stroke="#3a7bd5" stroke-width="1" opacity="0.6" id="line18"></line>
  </g>
  
  <text x="130" y="55" font-family="Microsoft YaHei, SimHei, sans-serif" font-size="28" font-weight="bold" fill="#1a3a5c" id="text18">基石智勘</text>
  <text x="130" y="82" font-family="Arial, sans-serif" font-size="13" fill="#3a7bd5" letter-spacing="2" id="text19">Rukn GeoExplore</text>
  <text x="130" y="102" font-family="Microsoft YaHei, sans-serif" font-size="10" fill="#888" id="text20">AI 驱动 · 智慧能源勘查</text>
</svg>